<?xml version="1.0" encoding="utf-8" standalone="no"?>
<!DOCTYPE svg PUBLIC "-//W3C//DTD SVG 1.1//EN"
  "http://www.w3.org/Graphics/SVG/1.1/DTD/svg11.dtd">
<!-- Created with matplotlib (https://matplotlib.org/) -->
<svg height="288pt" version="1.1" viewBox="0 0 432 288" width="432pt" xmlns="http://www.w3.org/2000/svg" xmlns:xlink="http://www.w3.org/1999/xlink">
 <defs>
  <style type="text/css">
*{stroke-linecap:butt;stroke-linejoin:round;}
  </style>
 </defs>
 <g id="figure_1">
  <g id="patch_1">
   <path d="M 0 288 
L 432 288 
L 432 0 
L 0 0 
z
" style="fill:#ffffff;"/>
  </g>
  <g id="axes_1">
   <g id="patch_2">
    <path d="M 54 252 
L 388.8 252 
L 388.8 34.56 
L 54 34.56 
z
" style="fill:#ffffff;"/>
   </g>
   <g id="matplotlib.axis_1">
    <g id="xtick_1">
     <g id="line2d_1">
      <defs>
       <path d="M 0 0 
L 0 3.5 
" id="m68015adfd2" style="stroke:#000000;stroke-width:0.8;"/>
      </defs>
      <g>
       <use style="stroke:#000000;stroke-width:0.8;" x="67.087071" xlink:href="#m68015adfd2" y="252"/>
      </g>
     </g>
     <g id="text_1">
      <!-- 100 -->
      <defs>
       <path d="M 12.40625 8.296875 
L 28.515625 8.296875 
L 28.515625 63.921875 
L 10.984375 60.40625 
L 10.984375 69.390625 
L 28.421875 72.90625 
L 38.28125 72.90625 
L 38.28125 8.296875 
L 54.390625 8.296875 
L 54.390625 0 
L 12.40625 0 
z
" id="DejaVuSans-49"/>
       <path d="M 31.78125 66.40625 
Q 24.171875 66.40625 20.328125 58.90625 
Q 16.5 51.421875 16.5 36.375 
Q 16.5 21.390625 20.328125 13.890625 
Q 24.171875 6.390625 31.78125 6.390625 
Q 39.453125 6.390625 43.28125 13.890625 
Q 47.125 21.390625 47.125 36.375 
Q 47.125 51.421875 43.28125 58.90625 
Q 39.453125 66.40625 31.78125 66.40625 
z
M 31.78125 74.21875 
Q 44.046875 74.21875 50.515625 64.515625 
Q 56.984375 54.828125 56.984375 36.375 
Q 56.984375 17.96875 50.515625 8.265625 
Q 44.046875 -1.421875 31.78125 -1.421875 
Q 19.53125 -1.421875 13.0625 8.265625 
Q 6.59375 17.96875 6.59375 36.375 
Q 6.59375 54.828125 13.0625 64.515625 
Q 19.53125 74.21875 31.78125 74.21875 
z
" id="DejaVuSans-48"/>
      </defs>
      <g transform="translate(57.543321 266.598437)scale(0.1 -0.1)">
       <use xlink:href="#DejaVuSans-49"/>
       <use x="63.623047" xlink:href="#DejaVuSans-48"/>
       <use x="127.246094" xlink:href="#DejaVuSans-48"/>
      </g>
     </g>
    </g>
    <g id="xtick_2">
     <g id="line2d_2">
      <g>
       <use style="stroke:#000000;stroke-width:0.8;" x="132.522427" xlink:href="#m68015adfd2" y="252"/>
      </g>
     </g>
     <g id="text_2">
      <!-- 150 -->
      <defs>
       <path d="M 10.796875 72.90625 
L 49.515625 72.90625 
L 49.515625 64.59375 
L 19.828125 64.59375 
L 19.828125 46.734375 
Q 21.96875 47.46875 24.109375 47.828125 
Q 26.265625 48.1875 28.421875 48.1875 
Q 40.625 48.1875 47.75 41.5 
Q 54.890625 34.8125 54.890625 23.390625 
Q 54.890625 11.625 47.5625 5.09375 
Q 40.234375 -1.421875 26.90625 -1.421875 
Q 22.3125 -1.421875 17.546875 -0.640625 
Q 12.796875 0.140625 7.71875 1.703125 
L 7.71875 11.625 
Q 12.109375 9.234375 16.796875 8.0625 
Q 21.484375 6.890625 26.703125 6.890625 
Q 35.15625 6.890625 40.078125 11.328125 
Q 45.015625 15.765625 45.015625 23.390625 
Q 45.015625 31 40.078125 35.4375 
Q 35.15625 39.890625 26.703125 39.890625 
Q 22.75 39.890625 18.8125 39.015625 
Q 14.890625 38.140625 10.796875 36.28125 
z
" id="DejaVuSans-53"/>
      </defs>
      <g transform="translate(122.978677 266.598437)scale(0.1 -0.1)">
       <use xlink:href="#DejaVuSans-49"/>
       <use x="63.623047" xlink:href="#DejaVuSans-53"/>
       <use x="127.246094" xlink:href="#DejaVuSans-48"/>
      </g>
     </g>
    </g>
    <g id="xtick_3">
     <g id="line2d_3">
      <g>
       <use style="stroke:#000000;stroke-width:0.8;" x="197.957784" xlink:href="#m68015adfd2" y="252"/>
      </g>
     </g>
     <g id="text_3">
      <!-- 200 -->
      <defs>
       <path d="M 19.1875 8.296875 
L 53.609375 8.296875 
L 53.609375 0 
L 7.328125 0 
L 7.328125 8.296875 
Q 12.9375 14.109375 22.625 23.890625 
Q 32.328125 33.6875 34.8125 36.53125 
Q 39.546875 41.84375 41.421875 45.53125 
Q 43.3125 49.21875 43.3125 52.78125 
Q 43.3125 58.59375 39.234375 62.25 
Q 35.15625 65.921875 28.609375 65.921875 
Q 23.96875 65.921875 18.8125 64.3125 
Q 13.671875 62.703125 7.8125 59.421875 
L 7.8125 69.390625 
Q 13.765625 71.78125 18.9375 73 
Q 24.125 74.21875 28.421875 74.21875 
Q 39.75 74.21875 46.484375 68.546875 
Q 53.21875 62.890625 53.21875 53.421875 
Q 53.21875 48.921875 51.53125 44.890625 
Q 49.859375 40.875 45.40625 35.40625 
Q 44.1875 33.984375 37.640625 27.21875 
Q 31.109375 20.453125 19.1875 8.296875 
z
" id="DejaVuSans-50"/>
      </defs>
      <g transform="translate(188.414034 266.598437)scale(0.1 -0.1)">
       <use xlink:href="#DejaVuSans-50"/>
       <use x="63.623047" xlink:href="#DejaVuSans-48"/>
       <use x="127.246094" xlink:href="#DejaVuSans-48"/>
      </g>
     </g>
    </g>
    <g id="xtick_4">
     <g id="line2d_4">
      <g>
       <use style="stroke:#000000;stroke-width:0.8;" x="263.39314" xlink:href="#m68015adfd2" y="252"/>
      </g>
     </g>
     <g id="text_4">
      <!-- 250 -->
      <g transform="translate(253.84939 266.598437)scale(0.1 -0.1)">
       <use xlink:href="#DejaVuSans-50"/>
       <use x="63.623047" xlink:href="#DejaVuSans-53"/>
       <use x="127.246094" xlink:href="#DejaVuSans-48"/>
      </g>
     </g>
    </g>
    <g id="xtick_5">
     <g id="line2d_5">
      <g>
       <use style="stroke:#000000;stroke-width:0.8;" x="328.828496" xlink:href="#m68015adfd2" y="252"/>
      </g>
     </g>
     <g id="text_5">
      <!-- 300 -->
      <defs>
       <path d="M 40.578125 39.3125 
Q 47.65625 37.796875 51.625 33 
Q 55.609375 28.21875 55.609375 21.1875 
Q 55.609375 10.40625 48.1875 4.484375 
Q 40.765625 -1.421875 27.09375 -1.421875 
Q 22.515625 -1.421875 17.65625 -0.515625 
Q 12.796875 0.390625 7.625 2.203125 
L 7.625 11.71875 
Q 11.71875 9.328125 16.59375 8.109375 
Q 21.484375 6.890625 26.8125 6.890625 
Q 36.078125 6.890625 40.9375 10.546875 
Q 45.796875 14.203125 45.796875 21.1875 
Q 45.796875 27.640625 41.28125 31.265625 
Q 36.765625 34.90625 28.71875 34.90625 
L 20.21875 34.90625 
L 20.21875 43.015625 
L 29.109375 43.015625 
Q 36.375 43.015625 40.234375 45.921875 
Q 44.09375 48.828125 44.09375 54.296875 
Q 44.09375 59.90625 40.109375 62.90625 
Q 36.140625 65.921875 28.71875 65.921875 
Q 24.65625 65.921875 20.015625 65.03125 
Q 15.375 64.15625 9.8125 62.3125 
L 9.8125 71.09375 
Q 15.4375 72.65625 20.34375 73.4375 
Q 25.25 74.21875 29.59375 74.21875 
Q 40.828125 74.21875 47.359375 69.109375 
Q 53.90625 64.015625 53.90625 55.328125 
Q 53.90625 49.265625 50.4375 45.09375 
Q 46.96875 40.921875 40.578125 39.3125 
z
" id="DejaVuSans-51"/>
      </defs>
      <g transform="translate(319.284746 266.598437)scale(0.1 -0.1)">
       <use xlink:href="#DejaVuSans-51"/>
       <use x="63.623047" xlink:href="#DejaVuSans-48"/>
       <use x="127.246094" xlink:href="#DejaVuSans-48"/>
      </g>
     </g>
    </g>
   </g>
   <g id="matplotlib.axis_2"/>
   <g id="line2d_6">
    <path clip-path="url(#pdfc3279d15)" d="M -1 252 
L 116.977993 252 
L 117.43103 249.661935 
L 119.696213 222.03956 
L 121.961397 197.229637 
L 124.22658 175.017705 
L 126.491764 155.203834 
L 128.756947 137.601703 
L 131.02213 122.037733 
L 132.834277 110.945021 
L 134.646424 100.975473 
L 136.45857 92.055835 
L 138.270717 84.116967 
L 140.082864 77.093622 
L 141.895011 70.92425 
L 143.707157 65.550801 
L 145.519304 60.918541 
L 147.331451 56.975883 
L 149.143597 53.674214 
L 150.502707 51.590965 
L 151.861817 49.824136 
L 153.220928 48.356214 
L 154.580038 47.170462 
L 155.939148 46.250895 
L 157.298258 45.582239 
L 158.657368 45.149914 
L 160.016478 44.939997 
L 161.375588 44.939199 
L 162.734698 45.134838 
L 164.093808 45.514815 
L 165.905955 46.288334 
L 167.718101 47.343231 
L 169.530248 48.655226 
L 171.795431 50.622221 
L 174.060615 52.914124 
L 176.778835 56.039877 
L 179.497055 59.518721 
L 182.668312 63.951467 
L 186.292605 69.41702 
L 190.822972 76.701962 
L 196.259412 85.889778 
L 206.226219 103.281184 
L 216.193026 120.522443 
L 222.988576 131.836269 
L 228.878053 141.224511 
L 234.314493 149.49281 
L 239.750933 157.348532 
L 244.734336 164.172193 
L 249.71774 170.628449 
L 254.701143 176.716799 
L 259.684547 182.441162 
L 264.66795 187.808931 
L 269.651354 192.83017 
L 274.634757 197.516948 
L 279.618161 201.882789 
L 284.601564 205.942214 
L 289.584968 209.710363 
L 294.568371 213.202696 
L 299.551774 216.434741 
L 304.988215 219.681842 
L 310.424655 222.657109 
L 315.861095 225.379568 
L 321.297535 227.86753 
L 327.187012 230.318474 
L 333.076489 232.535826 
L 339.419002 234.685232 
L 346.214552 236.73928 
L 353.010102 238.561505 
L 360.258689 240.276771 
L 367.960313 241.869886 
L 376.114973 243.330308 
L 384.72267 244.651992 
L 388.8 245.208211 
L 388.8 245.208211 
" style="fill:none;stroke:#1f77b4;stroke-linecap:square;stroke-opacity:0.6;stroke-width:2;"/>
   </g>
   <g id="line2d_7">
    <path clip-path="url(#pdfc3279d15)" d="M -1 252 
L 102.933856 252 
L 103.386893 250.523246 
L 105.19904 221.76201 
L 107.011186 196.041206 
L 108.823333 173.119992 
L 110.63548 152.774479 
L 112.447627 134.796617 
L 114.259773 118.99314 
L 116.07192 105.184589 
L 117.884067 93.204393 
L 119.696213 82.898008 
L 121.50836 74.122108 
L 122.86747 68.464269 
L 124.22658 63.539982 
L 125.58569 59.299762 
L 126.9448 55.696902 
L 128.30391 52.687333 
L 129.66302 50.229485 
L 131.02213 48.284162 
L 132.38124 46.814413 
L 133.74035 45.785419 
L 134.646424 45.328011 
L 135.552497 45.042636 
L 136.45857 44.920418 
L 137.364644 44.952832 
L 138.723754 45.273573 
L 140.082864 45.897638 
L 141.441974 46.80034 
L 142.801084 47.958476 
L 144.613231 49.862523 
L 146.425377 52.13407 
L 148.237524 54.729015 
L 150.502707 58.366144 
L 153.220928 63.214142 
L 156.392184 69.399496 
L 160.016478 76.984164 
L 164.999881 87.984267 
L 183.574385 129.601837 
L 188.557788 140.013579 
L 193.088155 149.015552 
L 197.618522 157.535006 
L 202.148889 165.549592 
L 206.226219 172.323454 
L 210.303549 178.681783 
L 214.380879 184.630664 
L 218.458209 190.180268 
L 222.535539 195.343831 
L 226.612869 200.136817 
L 230.690199 204.576231 
L 234.76753 208.680061 
L 238.84486 212.466826 
L 242.92219 215.95522 
L 246.99952 219.163825 
L 251.07685 222.110891 
L 255.607217 225.100234 
L 260.137583 227.812018 
L 264.66795 230.268573 
L 269.651354 232.701172 
L 274.634757 234.876849 
L 279.618161 236.8201 
L 285.054601 238.701488 
L 290.944078 240.489069 
L 296.833554 242.046179 
L 303.176068 243.497152 
L 309.971618 244.825911 
L 317.220205 246.022328 
L 325.374865 247.138185 
L 334.435599 248.141585 
L 344.402406 249.013167 
L 355.728323 249.771815 
L 368.866386 250.417883 
L 384.269633 250.944306 
L 388.8 251.063287 
L 388.8 251.063287 
" style="fill:none;stroke:#ff7f0e;stroke-linecap:square;stroke-opacity:0.6;stroke-width:2;"/>
   </g>
   <g id="line2d_8">
    <path clip-path="url(#pdfc3279d15)" d="M -1 252 
L 100.215636 252 
L 102.48082 207.807421 
L 104.292966 177.4523 
L 106.105113 151.344612 
L 107.91726 129.052698 
L 109.729406 110.183595 
L 111.088516 98.061673 
L 112.447627 87.524605 
L 113.806737 78.443291 
L 115.165847 70.697627 
L 116.524957 64.175922 
L 117.884067 58.774359 
L 119.243177 54.396482 
L 120.602287 50.952717 
L 121.50836 49.134518 
L 122.414433 47.671273 
L 123.320507 46.540984 
L 124.22658 45.722737 
L 125.132653 45.196656 
L 126.038727 44.943852 
L 126.9448 44.946382 
L 127.850874 45.187208 
L 128.756947 45.650152 
L 129.66302 46.319862 
L 131.02213 47.680452 
L 132.38124 49.427631 
L 133.74035 51.518909 
L 135.552497 54.775268 
L 137.364644 58.489587 
L 139.629827 63.662087 
L 142.348047 70.476414 
L 145.972341 80.283954 
L 150.955744 94.508292 
L 161.375588 124.365517 
L 165.905955 136.643957 
L 169.983285 147.111902 
L 174.060615 156.955862 
L 177.684908 165.15159 
L 181.309202 172.814384 
L 184.933495 179.945363 
L 188.557788 186.554227 
L 192.182082 192.657021 
L 195.806375 198.274339 
L 199.430669 203.429881 
L 203.054962 208.149314 
L 206.679256 212.459363 
L 210.303549 216.387116 
L 213.927842 219.959485 
L 217.552136 223.202801 
L 221.176429 226.142512 
L 224.800723 228.80298 
L 228.425016 231.20733 
L 232.502346 233.633183 
L 236.579676 235.791433 
L 240.657006 237.708862 
L 245.187373 239.586766 
L 249.71774 241.22844 
L 254.701143 242.794411 
L 260.137583 244.253468 
L 266.02706 245.582707 
L 272.369574 246.767667 
L 279.165124 247.801902 
L 286.866747 248.734858 
L 295.474444 249.539422 
L 305.441251 250.231026 
L 316.767168 250.787664 
L 330.811305 251.244035 
L 348.479736 251.584878 
L 372.943716 251.820467 
L 388.8 251.896178 
L 388.8 251.896178 
" style="fill:none;stroke:#2ca02c;stroke-linecap:square;stroke-opacity:0.6;stroke-width:2;"/>
   </g>
   <g id="line2d_9">
    <path clip-path="url(#pdfc3279d15)" d="M -1 252 
L 93.420086 252 
L 93.873123 246.687879 
L 95.232233 209.737594 
L 96.591343 177.94128 
L 97.950453 150.761552 
L 99.309563 127.710792 
L 100.668673 108.346824 
L 102.027783 92.268961 
L 103.386893 79.114371 
L 104.746003 68.554756 
L 106.105113 60.293305 
L 107.011186 55.928925 
L 107.91726 52.393365 
L 108.823333 49.618587 
L 109.729406 47.541105 
L 110.63548 46.101713 
L 111.541553 45.245218 
L 111.99459 45.019346 
L 112.447627 44.920196 
L 112.900663 44.941891 
L 113.806737 45.325339 
L 114.71281 46.126703 
L 115.618883 47.306014 
L 116.524957 48.826126 
L 117.884067 51.670523 
L 119.243177 55.098582 
L 121.055323 60.415063 
L 123.320507 67.988362 
L 126.038727 78.020837 
L 130.116057 94.110993 
L 138.270717 126.488476 
L 141.895011 139.969131 
L 145.519304 152.567227 
L 148.690561 162.784328 
L 151.861817 172.217735 
L 154.580038 179.677899 
L 157.298258 186.571154 
L 160.016478 192.915497 
L 162.734698 198.734278 
L 165.452918 204.054447 
L 168.171138 208.905161 
L 170.889358 213.316718 
L 173.607578 217.319723 
L 176.325798 220.944462 
L 179.044018 224.220441 
L 181.762238 227.176048 
L 184.480458 229.838325 
L 187.651715 232.607573 
L 190.822972 235.050115 
L 193.994229 237.200804 
L 197.165485 239.091519 
L 200.789779 240.97107 
L 204.414072 242.587739 
L 208.038366 243.976036 
L 212.115696 245.30269 
L 216.646062 246.528729 
L 221.629466 247.626643 
L 227.065906 248.580613 
L 232.955383 249.385655 
L 239.750933 250.086276 
L 247.905593 250.687606 
L 257.419363 251.157795 
L 269.651354 251.526201 
L 285.960674 251.781591 
L 311.783765 251.936826 
L 367.960313 251.995935 
L 388.8 251.998548 
L 388.8 251.998548 
" style="fill:none;stroke:#d62728;stroke-linecap:square;stroke-opacity:0.6;stroke-width:2;"/>
   </g>
   <g id="line2d_10">
    <path clip-path="url(#pdfc3279d15)" d="M -1 252 
L 92.967049 252 
L 93.420086 244.9711 
L 94.779196 191.726763 
L 96.138306 149.474881 
L 97.497416 116.52104 
L 98.40349 98.986541 
L 99.309563 84.548038 
L 100.215636 72.859584 
L 101.12171 63.608386 
L 102.027783 56.511862 
L 102.933856 51.314959 
L 103.83993 47.787681 
L 104.292966 46.584574 
L 104.746003 45.722846 
L 105.19904 45.179824 
L 105.652076 44.934015 
L 106.105113 44.965048 
L 106.55815 45.253619 
L 107.011186 45.781448 
L 107.91726 47.486568 
L 108.823333 49.952781 
L 109.729406 53.065917 
L 111.088516 58.728609 
L 112.900663 67.681265 
L 115.165847 80.338088 
L 119.243177 104.814183 
L 123.320507 128.908291 
L 126.491764 146.278217 
L 129.209984 159.881185 
L 131.475167 170.231868 
L 133.74035 179.67455 
L 136.005534 188.227108 
L 138.270717 195.926235 
L 140.535901 202.820744 
L 142.801084 208.966571 
L 145.066267 214.423094 
L 147.331451 219.250478 
L 149.596634 223.507797 
L 151.861817 227.251757 
L 154.127001 230.535868 
L 156.392184 233.409959 
L 158.657368 235.919932 
L 160.922551 238.107703 
L 163.187734 240.01127 
L 165.452918 241.66486 
L 168.171138 243.362148 
L 170.889358 244.790204 
L 173.607578 245.989545 
L 176.778835 247.14604 
L 180.403128 248.204564 
L 184.027422 249.037385 
L 188.557788 249.831178 
L 193.541192 250.465044 
L 199.430669 250.983059 
L 206.679256 251.389886 
L 216.193026 251.689884 
L 230.237163 251.887013 
L 255.607217 251.982224 
L 355.728323 251.99999 
L 388.8 251.999999 
L 388.8 251.999999 
" style="fill:none;stroke:#9467bd;stroke-linecap:square;stroke-opacity:0.6;stroke-width:2;"/>
   </g>
   <g id="patch_3">
    <path d="M 54 252 
L 54 34.56 
" style="fill:none;stroke:#000000;stroke-linecap:square;stroke-linejoin:miter;stroke-width:0.8;"/>
   </g>
   <g id="patch_4">
    <path d="M 388.8 252 
L 388.8 34.56 
" style="fill:none;stroke:#000000;stroke-linecap:square;stroke-linejoin:miter;stroke-width:0.8;"/>
   </g>
   <g id="patch_5">
    <path d="M 54 252 
L 388.8 252 
" style="fill:none;stroke:#000000;stroke-linecap:square;stroke-linejoin:miter;stroke-width:0.8;"/>
   </g>
   <g id="patch_6">
    <path d="M 54 34.56 
L 388.8 34.56 
" style="fill:none;stroke:#000000;stroke-linecap:square;stroke-linejoin:miter;stroke-width:0.8;"/>
   </g>
   <g id="text_6">
    <!-- Priors on daily AMI count (rescaled for visibility) -->
    <defs>
     <path d="M 19.671875 64.796875 
L 19.671875 37.40625 
L 32.078125 37.40625 
Q 38.96875 37.40625 42.71875 40.96875 
Q 46.484375 44.53125 46.484375 51.125 
Q 46.484375 57.671875 42.71875 61.234375 
Q 38.96875 64.796875 32.078125 64.796875 
z
M 9.8125 72.90625 
L 32.078125 72.90625 
Q 44.34375 72.90625 50.609375 67.359375 
Q 56.890625 61.8125 56.890625 51.125 
Q 56.890625 40.328125 50.609375 34.8125 
Q 44.34375 29.296875 32.078125 29.296875 
L 19.671875 29.296875 
L 19.671875 0 
L 9.8125 0 
z
" id="DejaVuSans-80"/>
     <path d="M 41.109375 46.296875 
Q 39.59375 47.171875 37.8125 47.578125 
Q 36.03125 48 33.890625 48 
Q 26.265625 48 22.1875 43.046875 
Q 18.109375 38.09375 18.109375 28.8125 
L 18.109375 0 
L 9.078125 0 
L 9.078125 54.6875 
L 18.109375 54.6875 
L 18.109375 46.1875 
Q 20.953125 51.171875 25.484375 53.578125 
Q 30.03125 56 36.53125 56 
Q 37.453125 56 38.578125 55.875 
Q 39.703125 55.765625 41.0625 55.515625 
z
" id="DejaVuSans-114"/>
     <path d="M 9.421875 54.6875 
L 18.40625 54.6875 
L 18.40625 0 
L 9.421875 0 
z
M 9.421875 75.984375 
L 18.40625 75.984375 
L 18.40625 64.59375 
L 9.421875 64.59375 
z
" id="DejaVuSans-105"/>
     <path d="M 30.609375 48.390625 
Q 23.390625 48.390625 19.1875 42.75 
Q 14.984375 37.109375 14.984375 27.296875 
Q 14.984375 17.484375 19.15625 11.84375 
Q 23.34375 6.203125 30.609375 6.203125 
Q 37.796875 6.203125 41.984375 11.859375 
Q 46.1875 17.53125 46.1875 27.296875 
Q 46.1875 37.015625 41.984375 42.703125 
Q 37.796875 48.390625 30.609375 48.390625 
z
M 30.609375 56 
Q 42.328125 56 49.015625 48.375 
Q 55.71875 40.765625 55.71875 27.296875 
Q 55.71875 13.875 49.015625 6.21875 
Q 42.328125 -1.421875 30.609375 -1.421875 
Q 18.84375 -1.421875 12.171875 6.21875 
Q 5.515625 13.875 5.515625 27.296875 
Q 5.515625 40.765625 12.171875 48.375 
Q 18.84375 56 30.609375 56 
z
" id="DejaVuSans-111"/>
     <path d="M 44.28125 53.078125 
L 44.28125 44.578125 
Q 40.484375 46.53125 36.375 47.5 
Q 32.28125 48.484375 27.875 48.484375 
Q 21.1875 48.484375 17.84375 46.4375 
Q 14.5 44.390625 14.5 40.28125 
Q 14.5 37.15625 16.890625 35.375 
Q 19.28125 33.59375 26.515625 31.984375 
L 29.59375 31.296875 
Q 39.15625 29.25 43.1875 25.515625 
Q 47.21875 21.78125 47.21875 15.09375 
Q 47.21875 7.46875 41.1875 3.015625 
Q 35.15625 -1.421875 24.609375 -1.421875 
Q 20.21875 -1.421875 15.453125 -0.5625 
Q 10.6875 0.296875 5.421875 2 
L 5.421875 11.28125 
Q 10.40625 8.6875 15.234375 7.390625 
Q 20.0625 6.109375 24.8125 6.109375 
Q 31.15625 6.109375 34.5625 8.28125 
Q 37.984375 10.453125 37.984375 14.40625 
Q 37.984375 18.0625 35.515625 20.015625 
Q 33.0625 21.96875 24.703125 23.78125 
L 21.578125 24.515625 
Q 13.234375 26.265625 9.515625 29.90625 
Q 5.8125 33.546875 5.8125 39.890625 
Q 5.8125 47.609375 11.28125 51.796875 
Q 16.75 56 26.8125 56 
Q 31.78125 56 36.171875 55.265625 
Q 40.578125 54.546875 44.28125 53.078125 
z
" id="DejaVuSans-115"/>
     <path id="DejaVuSans-32"/>
     <path d="M 54.890625 33.015625 
L 54.890625 0 
L 45.90625 0 
L 45.90625 32.71875 
Q 45.90625 40.484375 42.875 44.328125 
Q 39.84375 48.1875 33.796875 48.1875 
Q 26.515625 48.1875 22.3125 43.546875 
Q 18.109375 38.921875 18.109375 30.90625 
L 18.109375 0 
L 9.078125 0 
L 9.078125 54.6875 
L 18.109375 54.6875 
L 18.109375 46.1875 
Q 21.34375 51.125 25.703125 53.5625 
Q 30.078125 56 35.796875 56 
Q 45.21875 56 50.046875 50.171875 
Q 54.890625 44.34375 54.890625 33.015625 
z
" id="DejaVuSans-110"/>
     <path d="M 45.40625 46.390625 
L 45.40625 75.984375 
L 54.390625 75.984375 
L 54.390625 0 
L 45.40625 0 
L 45.40625 8.203125 
Q 42.578125 3.328125 38.25 0.953125 
Q 33.9375 -1.421875 27.875 -1.421875 
Q 17.96875 -1.421875 11.734375 6.484375 
Q 5.515625 14.40625 5.515625 27.296875 
Q 5.515625 40.1875 11.734375 48.09375 
Q 17.96875 56 27.875 56 
Q 33.9375 56 38.25 53.625 
Q 42.578125 51.265625 45.40625 46.390625 
z
M 14.796875 27.296875 
Q 14.796875 17.390625 18.875 11.75 
Q 22.953125 6.109375 30.078125 6.109375 
Q 37.203125 6.109375 41.296875 11.75 
Q 45.40625 17.390625 45.40625 27.296875 
Q 45.40625 37.203125 41.296875 42.84375 
Q 37.203125 48.484375 30.078125 48.484375 
Q 22.953125 48.484375 18.875 42.84375 
Q 14.796875 37.203125 14.796875 27.296875 
z
" id="DejaVuSans-100"/>
     <path d="M 34.28125 27.484375 
Q 23.390625 27.484375 19.1875 25 
Q 14.984375 22.515625 14.984375 16.5 
Q 14.984375 11.71875 18.140625 8.90625 
Q 21.296875 6.109375 26.703125 6.109375 
Q 34.1875 6.109375 38.703125 11.40625 
Q 43.21875 16.703125 43.21875 25.484375 
L 43.21875 27.484375 
z
M 52.203125 31.203125 
L 52.203125 0 
L 43.21875 0 
L 43.21875 8.296875 
Q 40.140625 3.328125 35.546875 0.953125 
Q 30.953125 -1.421875 24.3125 -1.421875 
Q 15.921875 -1.421875 10.953125 3.296875 
Q 6 8.015625 6 15.921875 
Q 6 25.140625 12.171875 29.828125 
Q 18.359375 34.515625 30.609375 34.515625 
L 43.21875 34.515625 
L 43.21875 35.40625 
Q 43.21875 41.609375 39.140625 45 
Q 35.0625 48.390625 27.6875 48.390625 
Q 23 48.390625 18.546875 47.265625 
Q 14.109375 46.140625 10.015625 43.890625 
L 10.015625 52.203125 
Q 14.9375 54.109375 19.578125 55.046875 
Q 24.21875 56 28.609375 56 
Q 40.484375 56 46.34375 49.84375 
Q 52.203125 43.703125 52.203125 31.203125 
z
" id="DejaVuSans-97"/>
     <path d="M 9.421875 75.984375 
L 18.40625 75.984375 
L 18.40625 0 
L 9.421875 0 
z
" id="DejaVuSans-108"/>
     <path d="M 32.171875 -5.078125 
Q 28.375 -14.84375 24.75 -17.8125 
Q 21.140625 -20.796875 15.09375 -20.796875 
L 7.90625 -20.796875 
L 7.90625 -13.28125 
L 13.1875 -13.28125 
Q 16.890625 -13.28125 18.9375 -11.515625 
Q 21 -9.765625 23.484375 -3.21875 
L 25.09375 0.875 
L 2.984375 54.6875 
L 12.5 54.6875 
L 29.59375 11.921875 
L 46.6875 54.6875 
L 56.203125 54.6875 
z
" id="DejaVuSans-121"/>
     <path d="M 34.1875 63.1875 
L 20.796875 26.90625 
L 47.609375 26.90625 
z
M 28.609375 72.90625 
L 39.796875 72.90625 
L 67.578125 0 
L 57.328125 0 
L 50.6875 18.703125 
L 17.828125 18.703125 
L 11.1875 0 
L 0.78125 0 
z
" id="DejaVuSans-65"/>
     <path d="M 9.8125 72.90625 
L 24.515625 72.90625 
L 43.109375 23.296875 
L 61.8125 72.90625 
L 76.515625 72.90625 
L 76.515625 0 
L 66.890625 0 
L 66.890625 64.015625 
L 48.09375 14.015625 
L 38.1875 14.015625 
L 19.390625 64.015625 
L 19.390625 0 
L 9.8125 0 
z
" id="DejaVuSans-77"/>
     <path d="M 9.8125 72.90625 
L 19.671875 72.90625 
L 19.671875 0 
L 9.8125 0 
z
" id="DejaVuSans-73"/>
     <path d="M 48.78125 52.59375 
L 48.78125 44.1875 
Q 44.96875 46.296875 41.140625 47.34375 
Q 37.3125 48.390625 33.40625 48.390625 
Q 24.65625 48.390625 19.8125 42.84375 
Q 14.984375 37.3125 14.984375 27.296875 
Q 14.984375 17.28125 19.8125 11.734375 
Q 24.65625 6.203125 33.40625 6.203125 
Q 37.3125 6.203125 41.140625 7.25 
Q 44.96875 8.296875 48.78125 10.40625 
L 48.78125 2.09375 
Q 45.015625 0.34375 40.984375 -0.53125 
Q 36.96875 -1.421875 32.421875 -1.421875 
Q 20.0625 -1.421875 12.78125 6.34375 
Q 5.515625 14.109375 5.515625 27.296875 
Q 5.515625 40.671875 12.859375 48.328125 
Q 20.21875 56 33.015625 56 
Q 37.15625 56 41.109375 55.140625 
Q 45.0625 54.296875 48.78125 52.59375 
z
" id="DejaVuSans-99"/>
     <path d="M 8.5 21.578125 
L 8.5 54.6875 
L 17.484375 54.6875 
L 17.484375 21.921875 
Q 17.484375 14.15625 20.5 10.265625 
Q 23.53125 6.390625 29.59375 6.390625 
Q 36.859375 6.390625 41.078125 11.03125 
Q 45.3125 15.671875 45.3125 23.6875 
L 45.3125 54.6875 
L 54.296875 54.6875 
L 54.296875 0 
L 45.3125 0 
L 45.3125 8.40625 
Q 42.046875 3.421875 37.71875 1 
Q 33.40625 -1.421875 27.6875 -1.421875 
Q 18.265625 -1.421875 13.375 4.4375 
Q 8.5 10.296875 8.5 21.578125 
z
M 31.109375 56 
z
" id="DejaVuSans-117"/>
     <path d="M 18.3125 70.21875 
L 18.3125 54.6875 
L 36.8125 54.6875 
L 36.8125 47.703125 
L 18.3125 47.703125 
L 18.3125 18.015625 
Q 18.3125 11.328125 20.140625 9.421875 
Q 21.96875 7.515625 27.59375 7.515625 
L 36.8125 7.515625 
L 36.8125 0 
L 27.59375 0 
Q 17.1875 0 13.234375 3.875 
Q 9.28125 7.765625 9.28125 18.015625 
L 9.28125 47.703125 
L 2.6875 47.703125 
L 2.6875 54.6875 
L 9.28125 54.6875 
L 9.28125 70.21875 
z
" id="DejaVuSans-116"/>
     <path d="M 31 75.875 
Q 24.46875 64.65625 21.28125 53.65625 
Q 18.109375 42.671875 18.109375 31.390625 
Q 18.109375 20.125 21.3125 9.0625 
Q 24.515625 -2 31 -13.1875 
L 23.1875 -13.1875 
Q 15.875 -1.703125 12.234375 9.375 
Q 8.59375 20.453125 8.59375 31.390625 
Q 8.59375 42.28125 12.203125 53.3125 
Q 15.828125 64.359375 23.1875 75.875 
z
" id="DejaVuSans-40"/>
     <path d="M 56.203125 29.59375 
L 56.203125 25.203125 
L 14.890625 25.203125 
Q 15.484375 15.921875 20.484375 11.0625 
Q 25.484375 6.203125 34.421875 6.203125 
Q 39.59375 6.203125 44.453125 7.46875 
Q 49.3125 8.734375 54.109375 11.28125 
L 54.109375 2.78125 
Q 49.265625 0.734375 44.1875 -0.34375 
Q 39.109375 -1.421875 33.890625 -1.421875 
Q 20.796875 -1.421875 13.15625 6.1875 
Q 5.515625 13.8125 5.515625 26.8125 
Q 5.515625 40.234375 12.765625 48.109375 
Q 20.015625 56 32.328125 56 
Q 43.359375 56 49.78125 48.890625 
Q 56.203125 41.796875 56.203125 29.59375 
z
M 47.21875 32.234375 
Q 47.125 39.59375 43.09375 43.984375 
Q 39.0625 48.390625 32.421875 48.390625 
Q 24.90625 48.390625 20.390625 44.140625 
Q 15.875 39.890625 15.1875 32.171875 
z
" id="DejaVuSans-101"/>
     <path d="M 37.109375 75.984375 
L 37.109375 68.5 
L 28.515625 68.5 
Q 23.6875 68.5 21.796875 66.546875 
Q 19.921875 64.59375 19.921875 59.515625 
L 19.921875 54.6875 
L 34.71875 54.6875 
L 34.71875 47.703125 
L 19.921875 47.703125 
L 19.921875 0 
L 10.890625 0 
L 10.890625 47.703125 
L 2.296875 47.703125 
L 2.296875 54.6875 
L 10.890625 54.6875 
L 10.890625 58.5 
Q 10.890625 67.625 15.140625 71.796875 
Q 19.390625 75.984375 28.609375 75.984375 
z
" id="DejaVuSans-102"/>
     <path d="M 2.984375 54.6875 
L 12.5 54.6875 
L 29.59375 8.796875 
L 46.6875 54.6875 
L 56.203125 54.6875 
L 35.6875 0 
L 23.484375 0 
z
" id="DejaVuSans-118"/>
     <path d="M 48.6875 27.296875 
Q 48.6875 37.203125 44.609375 42.84375 
Q 40.53125 48.484375 33.40625 48.484375 
Q 26.265625 48.484375 22.1875 42.84375 
Q 18.109375 37.203125 18.109375 27.296875 
Q 18.109375 17.390625 22.1875 11.75 
Q 26.265625 6.109375 33.40625 6.109375 
Q 40.53125 6.109375 44.609375 11.75 
Q 48.6875 17.390625 48.6875 27.296875 
z
M 18.109375 46.390625 
Q 20.953125 51.265625 25.265625 53.625 
Q 29.59375 56 35.59375 56 
Q 45.5625 56 51.78125 48.09375 
Q 58.015625 40.1875 58.015625 27.296875 
Q 58.015625 14.40625 51.78125 6.484375 
Q 45.5625 -1.421875 35.59375 -1.421875 
Q 29.59375 -1.421875 25.265625 0.953125 
Q 20.953125 3.328125 18.109375 8.203125 
L 18.109375 0 
L 9.078125 0 
L 9.078125 75.984375 
L 18.109375 75.984375 
z
" id="DejaVuSans-98"/>
     <path d="M 8.015625 75.875 
L 15.828125 75.875 
Q 23.140625 64.359375 26.78125 53.3125 
Q 30.421875 42.28125 30.421875 31.390625 
Q 30.421875 20.453125 26.78125 9.375 
Q 23.140625 -1.703125 15.828125 -13.1875 
L 8.015625 -13.1875 
Q 14.5 -2 17.703125 9.0625 
Q 20.90625 20.125 20.90625 31.390625 
Q 20.90625 42.671875 17.703125 53.65625 
Q 14.5 64.65625 8.015625 75.875 
z
" id="DejaVuSans-41"/>
    </defs>
    <g transform="translate(78.133125 28.56)scale(0.12 -0.12)">
     <use xlink:href="#DejaVuSans-80"/>
     <use x="60.287109" xlink:href="#DejaVuSans-114"/>
     <use x="101.400391" xlink:href="#DejaVuSans-105"/>
     <use x="129.183594" xlink:href="#DejaVuSans-111"/>
     <use x="190.365234" xlink:href="#DejaVuSans-114"/>
     <use x="231.478516" xlink:href="#DejaVuSans-115"/>
     <use x="283.578125" xlink:href="#DejaVuSans-32"/>
     <use x="315.365234" xlink:href="#DejaVuSans-111"/>
     <use x="376.546875" xlink:href="#DejaVuSans-110"/>
     <use x="439.925781" xlink:href="#DejaVuSans-32"/>
     <use x="471.712891" xlink:href="#DejaVuSans-100"/>
     <use x="535.189453" xlink:href="#DejaVuSans-97"/>
     <use x="596.46875" xlink:href="#DejaVuSans-105"/>
     <use x="624.251953" xlink:href="#DejaVuSans-108"/>
     <use x="652.035156" xlink:href="#DejaVuSans-121"/>
     <use x="711.214844" xlink:href="#DejaVuSans-32"/>
     <use x="743.001953" xlink:href="#DejaVuSans-65"/>
     <use x="811.410156" xlink:href="#DejaVuSans-77"/>
     <use x="897.689453" xlink:href="#DejaVuSans-73"/>
     <use x="927.181641" xlink:href="#DejaVuSans-32"/>
     <use x="958.96875" xlink:href="#DejaVuSans-99"/>
     <use x="1013.949219" xlink:href="#DejaVuSans-111"/>
     <use x="1075.130859" xlink:href="#DejaVuSans-117"/>
     <use x="1138.509766" xlink:href="#DejaVuSans-110"/>
     <use x="1201.888672" xlink:href="#DejaVuSans-116"/>
     <use x="1241.097656" xlink:href="#DejaVuSans-32"/>
     <use x="1272.884766" xlink:href="#DejaVuSans-40"/>
     <use x="1311.898438" xlink:href="#DejaVuSans-114"/>
     <use x="1352.980469" xlink:href="#DejaVuSans-101"/>
     <use x="1414.503906" xlink:href="#DejaVuSans-115"/>
     <use x="1466.603516" xlink:href="#DejaVuSans-99"/>
     <use x="1521.583984" xlink:href="#DejaVuSans-97"/>
     <use x="1582.863281" xlink:href="#DejaVuSans-108"/>
     <use x="1610.646484" xlink:href="#DejaVuSans-101"/>
     <use x="1672.169922" xlink:href="#DejaVuSans-100"/>
     <use x="1735.646484" xlink:href="#DejaVuSans-32"/>
     <use x="1767.433594" xlink:href="#DejaVuSans-102"/>
     <use x="1802.638672" xlink:href="#DejaVuSans-111"/>
     <use x="1863.820312" xlink:href="#DejaVuSans-114"/>
     <use x="1904.933594" xlink:href="#DejaVuSans-32"/>
     <use x="1936.720703" xlink:href="#DejaVuSans-118"/>
     <use x="1995.900391" xlink:href="#DejaVuSans-105"/>
     <use x="2023.683594" xlink:href="#DejaVuSans-115"/>
     <use x="2075.783203" xlink:href="#DejaVuSans-105"/>
     <use x="2103.566406" xlink:href="#DejaVuSans-98"/>
     <use x="2167.042969" xlink:href="#DejaVuSans-105"/>
     <use x="2194.826172" xlink:href="#DejaVuSans-108"/>
     <use x="2222.609375" xlink:href="#DejaVuSans-105"/>
     <use x="2250.392578" xlink:href="#DejaVuSans-116"/>
     <use x="2289.601562" xlink:href="#DejaVuSans-121"/>
     <use x="2348.78125" xlink:href="#DejaVuSans-41"/>
    </g>
   </g>
   <g id="legend_1">
    <g id="line2d_11">
     <path d="M 329.41875 47.658437 
L 349.41875 47.658437 
" style="fill:none;stroke:#1f77b4;stroke-linecap:square;stroke-opacity:0.6;stroke-width:2;"/>
    </g>
    <g id="line2d_12"/>
    <g id="text_7">
     <!-- Mon -->
     <g transform="translate(357.41875 51.158437)scale(0.1 -0.1)">
      <use xlink:href="#DejaVuSans-77"/>
      <use x="86.279297" xlink:href="#DejaVuSans-111"/>
      <use x="147.460938" xlink:href="#DejaVuSans-110"/>
     </g>
    </g>
    <g id="line2d_13">
     <path d="M 329.41875 62.336562 
L 349.41875 62.336562 
" style="fill:none;stroke:#ff7f0e;stroke-linecap:square;stroke-opacity:0.6;stroke-width:2;"/>
    </g>
    <g id="line2d_14"/>
    <g id="text_8">
     <!-- Tue -->
     <defs>
      <path d="M -0.296875 72.90625 
L 61.375 72.90625 
L 61.375 64.59375 
L 35.5 64.59375 
L 35.5 0 
L 25.59375 0 
L 25.59375 64.59375 
L -0.296875 64.59375 
z
" id="DejaVuSans-84"/>
     </defs>
     <g transform="translate(357.41875 65.836562)scale(0.1 -0.1)">
      <use xlink:href="#DejaVuSans-84"/>
      <use x="60.849609" xlink:href="#DejaVuSans-117"/>
      <use x="124.228516" xlink:href="#DejaVuSans-101"/>
     </g>
    </g>
    <g id="line2d_15">
     <path d="M 329.41875 77.014687 
L 349.41875 77.014687 
" style="fill:none;stroke:#2ca02c;stroke-linecap:square;stroke-opacity:0.6;stroke-width:2;"/>
    </g>
    <g id="line2d_16"/>
    <g id="text_9">
     <!-- Wed -->
     <defs>
      <path d="M 3.328125 72.90625 
L 13.28125 72.90625 
L 28.609375 11.28125 
L 43.890625 72.90625 
L 54.984375 72.90625 
L 70.3125 11.28125 
L 85.59375 72.90625 
L 95.609375 72.90625 
L 77.296875 0 
L 64.890625 0 
L 49.515625 63.28125 
L 33.984375 0 
L 21.578125 0 
z
" id="DejaVuSans-87"/>
     </defs>
     <g transform="translate(357.41875 80.514687)scale(0.1 -0.1)">
      <use xlink:href="#DejaVuSans-87"/>
      <use x="98.798828" xlink:href="#DejaVuSans-101"/>
      <use x="160.322266" xlink:href="#DejaVuSans-100"/>
     </g>
    </g>
    <g id="line2d_17">
     <path d="M 329.41875 91.692813 
L 349.41875 91.692813 
" style="fill:none;stroke:#d62728;stroke-linecap:square;stroke-opacity:0.6;stroke-width:2;"/>
    </g>
    <g id="line2d_18"/>
    <g id="text_10">
     <!-- Thu -->
     <defs>
      <path d="M 54.890625 33.015625 
L 54.890625 0 
L 45.90625 0 
L 45.90625 32.71875 
Q 45.90625 40.484375 42.875 44.328125 
Q 39.84375 48.1875 33.796875 48.1875 
Q 26.515625 48.1875 22.3125 43.546875 
Q 18.109375 38.921875 18.109375 30.90625 
L 18.109375 0 
L 9.078125 0 
L 9.078125 75.984375 
L 18.109375 75.984375 
L 18.109375 46.1875 
Q 21.34375 51.125 25.703125 53.5625 
Q 30.078125 56 35.796875 56 
Q 45.21875 56 50.046875 50.171875 
Q 54.890625 44.34375 54.890625 33.015625 
z
" id="DejaVuSans-104"/>
     </defs>
     <g transform="translate(357.41875 95.192813)scale(0.1 -0.1)">
      <use xlink:href="#DejaVuSans-84"/>
      <use x="61.083984" xlink:href="#DejaVuSans-104"/>
      <use x="124.462891" xlink:href="#DejaVuSans-117"/>
     </g>
    </g>
    <g id="line2d_19">
     <path d="M 329.41875 106.370937 
L 349.41875 106.370937 
" style="fill:none;stroke:#9467bd;stroke-linecap:square;stroke-opacity:0.6;stroke-width:2;"/>
    </g>
    <g id="line2d_20"/>
    <g id="text_11">
     <!-- Fri -->
     <defs>
      <path d="M 9.8125 72.90625 
L 51.703125 72.90625 
L 51.703125 64.59375 
L 19.671875 64.59375 
L 19.671875 43.109375 
L 48.578125 43.109375 
L 48.578125 34.8125 
L 19.671875 34.8125 
L 19.671875 0 
L 9.8125 0 
z
" id="DejaVuSans-70"/>
     </defs>
     <g transform="translate(357.41875 109.870937)scale(0.1 -0.1)">
      <use xlink:href="#DejaVuSans-70"/>
      <use x="57.410156" xlink:href="#DejaVuSans-114"/>
      <use x="98.523438" xlink:href="#DejaVuSans-105"/>
     </g>
    </g>
   </g>
  </g>
 </g>
 <defs>
  <clipPath id="pdfc3279d15">
   <rect height="217.44" width="334.8" x="54" y="34.56"/>
  </clipPath>
 </defs>
</svg>
